<svg width="20" height="20" viewBox="0 0 20 20" fill="none" xmlns="http://www.w3.org/2000/svg">
<path d="M10.0463 2.99979C10.2292 2.73442 10.2426 2.38737 10.0808 2.10861C9.91909 1.82985 9.61109 1.66937 9.28992 1.6965C5.01943 2.05724 1.6665 5.6366 1.6665 10C1.6665 14.6023 5.39746 18.3333 9.99984 18.3333C14.3632 18.3333 17.9426 14.9803 18.3033 10.7098C18.3304 10.3887 18.1699 10.0807 17.8912 9.91892C17.6124 9.75717 17.2654 9.77067 17 9.95359C16.1949 10.5085 15.2199 10.8333 14.1665 10.8333C11.4051 10.8333 9.1665 8.59475 9.1665 5.8333C9.1665 4.77991 9.49134 3.8049 10.0463 2.99979Z" fill="#6A0DAD"/>
</svg>
