<svg width="243" height="116" viewBox="0 0 243 116" fill="none" xmlns="http://www.w3.org/2000/svg">
<path d="M59.3516 115.468L58 113.993L106.8 69.2451H109.761L59.3516 115.468ZM182.446 1.2373L183.123 1.97461L134.085 46.9404H131.125L181.771 0.5L182.446 1.2373Z" fill="#D9D9D9"/>
<path d="M161.536 67.5274C160.858 67.5274 160.274 67.2988 159.783 66.8414C159.308 66.3672 159.071 65.7659 159.071 65.0376C159.071 64.3093 159.308 63.725 159.783 63.2846C160.274 62.8273 160.858 62.5986 161.536 62.5986C162.23 62.5986 162.814 62.8273 163.289 63.2846C163.763 63.725 164 64.3093 164 65.0376C164 65.7659 163.763 66.3672 163.289 66.8414C162.814 67.2988 162.23 67.5274 161.536 67.5274Z" fill="#D9D9D9"/>
<path d="M148.446 67.527C147.312 67.527 146.295 67.3068 145.398 66.8664C144.517 66.4261 143.831 65.757 143.34 64.8594C142.849 63.9447 142.603 62.7845 142.603 61.3787V53.6553H146.566V60.7944C146.566 61.9292 146.804 62.7676 147.278 63.3096C147.769 63.8346 148.455 64.0972 149.336 64.0972C149.945 64.0972 150.487 63.9701 150.962 63.7161C151.436 63.4451 151.809 63.0386 152.08 62.4966C152.351 61.9377 152.486 61.2432 152.486 60.4133V53.6553H156.449V67.3237H152.689V63.5636L153.375 64.6561C152.918 65.6046 152.241 66.3244 151.343 66.8156C150.462 67.2899 149.497 67.527 148.446 67.527Z" fill="#D9D9D9"/>
<path d="M129.517 64.5293L129.619 59.7021L135.996 53.6555H140.722L134.599 59.88L132.541 61.5568L129.517 64.5293ZM126.24 67.324V48.4727H130.203V67.324H126.24ZM136.428 67.324L131.804 61.5822L134.294 58.5081L141.23 67.324H136.428Z" fill="#D9D9D9"/>
<path d="M116.181 67.5261C114.724 67.5261 113.428 67.2213 112.294 66.6115C111.176 66.0018 110.286 65.1718 109.626 64.1217C108.982 63.0547 108.66 61.8436 108.66 60.4887C108.66 59.1167 108.982 57.9057 109.626 56.8556C110.286 55.7885 111.176 54.9586 112.294 54.3658C113.428 53.756 114.724 53.4512 116.181 53.4512C117.62 53.4512 118.908 53.756 120.042 54.3658C121.177 54.9586 122.066 55.7801 122.71 56.8302C123.354 57.8803 123.676 59.0998 123.676 60.4887C123.676 61.8436 123.354 63.0547 122.71 64.1217C122.066 65.1718 121.177 66.0018 120.042 66.6115C118.908 67.2213 117.62 67.5261 116.181 67.5261ZM116.181 64.2742C116.841 64.2742 117.434 64.1217 117.959 63.8168C118.484 63.512 118.899 63.0801 119.204 62.5211C119.509 61.9453 119.661 61.2678 119.661 60.4887C119.661 59.6926 119.509 59.0151 119.204 58.4562C118.899 57.8972 118.484 57.4653 117.959 57.1605C117.434 56.8556 116.841 56.7031 116.181 56.7031C115.52 56.7031 114.927 56.8556 114.402 57.1605C113.877 57.4653 113.454 57.8972 113.132 58.4562C112.827 59.0151 112.675 59.6926 112.675 60.4887C112.675 61.2678 112.827 61.9453 113.132 62.5211C113.454 63.0801 113.877 63.512 114.402 63.8168C114.927 64.1217 115.52 64.2742 116.181 64.2742Z" fill="#D9D9D9"/>
<path d="M100.517 67.5261C98.9588 67.5261 97.5868 67.2213 96.4012 66.6115C95.2325 66.0018 94.3264 65.1718 93.6827 64.1217C93.0391 63.0547 92.7173 61.8436 92.7173 60.4887C92.7173 59.1167 93.0306 57.9057 93.6573 56.8556C94.3009 55.7885 95.1732 54.9586 96.2742 54.3658C97.3751 53.756 98.62 53.4512 100.009 53.4512C101.347 53.4512 102.55 53.7391 103.617 54.315C104.701 54.8739 105.556 55.6869 106.183 56.754C106.809 57.8041 107.123 59.0659 107.123 60.5395C107.123 60.6919 107.114 60.8697 107.097 61.073C107.08 61.2593 107.063 61.4371 107.046 61.6065H95.9439V59.2946H104.963L103.439 59.9805C103.439 59.2692 103.295 58.6509 103.007 58.1259C102.719 57.6008 102.321 57.1943 101.813 56.9064C101.305 56.6015 100.712 56.4491 100.034 56.4491C99.3568 56.4491 98.7555 56.6015 98.2305 56.9064C97.7223 57.1943 97.3243 57.6093 97.0364 58.1513C96.7484 58.6764 96.6045 59.303 96.6045 60.0313V60.6411C96.6045 61.3863 96.7654 62.0469 97.0872 62.6228C97.4259 63.1817 97.8917 63.6136 98.4845 63.9185C99.0943 64.2064 99.8057 64.3504 100.619 64.3504C101.347 64.3504 101.982 64.2403 102.524 64.0201C103.083 63.7999 103.591 63.4696 104.049 63.0293L106.157 65.3158C105.531 66.0272 104.743 66.5776 103.794 66.9672C102.846 67.3398 101.753 67.5261 100.517 67.5261Z" fill="#D9D9D9"/>
<path d="M84.9197 67.5261C83.751 67.5261 82.6246 67.3906 81.5406 67.1196C80.4736 66.8317 79.6267 66.476 79 66.0526L80.3211 63.2071C80.9478 63.5967 81.6846 63.9185 82.5315 64.1725C83.3953 64.4097 84.2422 64.5282 85.0721 64.5282C85.9867 64.5282 86.6304 64.4181 87.003 64.1979C87.3926 63.9778 87.5873 63.6729 87.5873 63.2833C87.5873 62.9615 87.4349 62.7244 87.13 62.572C86.8421 62.4026 86.4525 62.2755 85.9613 62.1909C85.4701 62.1062 84.9281 62.0215 84.3353 61.9368C83.7595 61.8521 83.1751 61.742 82.5823 61.6065C81.9895 61.4541 81.4475 61.2339 80.9563 60.946C80.4651 60.658 80.0671 60.2685 79.7622 59.7773C79.4743 59.2861 79.3303 58.6509 79.3303 57.8718C79.3303 57.008 79.5759 56.2458 80.0671 55.5853C80.5752 54.9247 81.3035 54.4081 82.252 54.0355C83.2005 53.646 84.3353 53.4512 85.6565 53.4512C86.588 53.4512 87.5365 53.5528 88.502 53.756C89.4674 53.9593 90.272 54.2557 90.9156 54.6453L89.5944 57.4653C88.9339 57.0758 88.2648 56.8132 87.5873 56.6777C86.9268 56.5253 86.2832 56.4491 85.6565 56.4491C84.7757 56.4491 84.1321 56.5676 83.7256 56.8048C83.3191 57.0419 83.1158 57.3468 83.1158 57.7194C83.1158 58.0581 83.2598 58.3122 83.5477 58.4816C83.8526 58.6509 84.2506 58.7864 84.7418 58.8881C85.233 58.9897 85.7666 59.0829 86.3424 59.1675C86.9352 59.2353 87.5281 59.3454 88.1209 59.4978C88.7137 59.6503 89.2472 59.8704 89.7215 60.1584C90.2127 60.4294 90.6107 60.8105 90.9156 61.3016C91.2205 61.7759 91.3729 62.4026 91.3729 63.1817C91.3729 64.0286 91.1188 64.7823 90.6107 65.4428C90.1026 66.0865 89.3658 66.5946 88.4003 66.9672C87.4518 67.3398 86.2916 67.5261 84.9197 67.5261Z" fill="#D9D9D9"/>
</svg>
