<svg width="21" height="20" viewBox="0 0 21 20" fill="none" xmlns="http://www.w3.org/2000/svg">
<g clip-path="url(#clip0_203_734)">
<path d="M20.5 4.54741V16.1382C20.5 16.8916 19.89 17.5016 19.1367 17.5016H15.9542V9.77491L10.5 13.8666L5.04583 9.77491V17.5024H1.86333C1.68423 17.5024 1.50688 17.4671 1.34142 17.3986C1.17595 17.33 1.02562 17.2295 0.899017 17.1028C0.772408 16.9761 0.672003 16.8257 0.603539 16.6602C0.535074 16.4947 0.499891 16.3174 0.5 16.1382V4.54741C0.5 2.86158 2.42417 1.89908 3.7725 2.91075L5.04583 3.86658L10.5 7.95658L15.9542 3.86491L17.2275 2.91075C18.575 1.89991 20.5 2.86158 20.5 4.54741Z" fill="currentColor"/>
</g>
<defs>
<clipPath id="clip0_203_734">
<rect width="20" height="20" fill="currentColor" transform="translate(0.5)"/>
</clipPath>
</defs>
</svg>
