<svg width="27" height="27" viewBox="0 0 27 27" fill="none" xmlns="http://www.w3.org/2000/svg">
<path fill-rule="evenodd" clip-rule="evenodd" d="M12.6814 5.0625C8.46559 5.0625 5.0625 8.35195 5.0625 12.4269C5.0625 15.6673 7.24657 18.4167 10.2941 19.3986C10.7005 19.4477 10.802 19.2513 10.802 19.0549V17.7784C8.66876 18.2203 8.21163 16.7965 8.21163 16.7965C7.85608 15.9619 7.34816 15.7164 7.34816 15.7164C6.63707 15.2745 7.39895 15.2745 7.39895 15.2745C8.16084 15.3236 8.56718 16.011 8.56718 16.011C9.22748 17.1402 10.3449 16.7965 10.802 16.6001C10.8528 16.1092 11.056 15.8146 11.31 15.6182C9.63382 15.4218 7.85608 14.7836 7.85608 11.9851C7.85608 11.1995 8.16084 10.5122 8.61797 10.0212C8.51639 9.82484 8.26242 9.0884 8.66876 8.05737C8.66876 8.05737 9.32906 7.86099 10.7513 8.79382C11.3608 8.64653 12.0211 8.54834 12.6814 8.54834C13.3417 8.54834 14.002 8.64653 14.6115 8.79382C16.0845 7.86099 16.694 8.05737 16.694 8.05737C17.1003 9.0884 16.8463 9.82484 16.7448 10.0212C17.2527 10.5122 17.5066 11.1995 17.5066 11.9851C17.5066 14.8327 15.7289 15.4218 14.0528 15.6182C14.3067 15.8637 14.5607 16.3056 14.5607 16.9929V19.0059C14.5607 19.2022 14.7131 19.4477 15.0686 19.3495C18.1162 18.3676 20.2494 15.6182 20.2494 12.3778C20.3002 8.35195 16.8971 5.0625 12.6814 5.0625Z" fill="currentColor"/>
<g clip-path="url(#clip0_372_6)">
<path d="M15.1527 5.29801L17.9476 0.64013L17.9587 0.623185C18.0749 0.440803 18.2316 0.285602 18.4177 0.168819C18.594 0.059822 18.7987 0.00128216 19.0082 8.27465e-07C19.2187 -0.000254081 19.4247 0.0583914 19.6013 0.168819C19.7866 0.285981 19.9423 0.441666 20.057 0.624441C20.0653 0.637829 20.0731 0.651008 20.0804 0.663978L22.8298 5.26663L22.8454 5.29425C22.9483 5.49275 23.0012 5.71185 22.9997 5.93375C22.9984 6.11701 22.9498 6.29707 22.8584 6.45777C22.7556 6.63713 22.5981 6.78171 22.4073 6.87198C22.3949 6.87825 22.3819 6.88327 22.3695 6.88829C22.1827 6.96668 21.9801 7.00419 21.7764 6.99812H16.1462C16.1319 6.99812 16.1176 6.99812 16.1039 6.99812C15.966 6.99705 15.8294 6.97262 15.7002 6.92595C15.4949 6.85097 15.3185 6.71687 15.195 6.54187C15.0706 6.36428 15.0028 6.15554 14.9997 5.94128C14.9965 5.75378 15.0312 5.56747 15.1019 5.39278C15.115 5.3595 15.1318 5.32771 15.1521 5.29801H15.1527Z" fill="#CF1F25"/>
<path fill-rule="evenodd" clip-rule="evenodd" d="M15.5858 5.56973L18.3931 0.888633C18.7342 0.370881 19.2746 0.357702 19.6216 0.888633L22.384 5.51325C22.6047 5.94063 22.4953 6.51738 21.7766 6.50294H16.1464C15.6737 6.51424 15.369 6.11447 15.5858 5.56973Z" fill="#FEC901"/>
<path d="M18.748 5.25792C18.808 5.20063 18.8871 5.16553 18.9713 5.15876C19.0244 5.15519 19.0778 5.1629 19.1275 5.18135C19.1764 5.19939 19.2208 5.2272 19.2577 5.26294C19.2999 5.3033 19.3311 5.35303 19.3485 5.40776C19.366 5.46248 19.3693 5.52051 19.358 5.57673C19.3522 5.60588 19.3431 5.6343 19.3306 5.66145C19.3011 5.72397 19.2531 5.77671 19.1927 5.8131C19.1323 5.84949 19.062 5.8679 18.9908 5.86604C18.9397 5.86485 18.8894 5.85353 18.843 5.83278C18.7613 5.79525 18.6974 5.72934 18.664 5.64827C18.6527 5.62278 18.6448 5.59599 18.6405 5.56857C18.636 5.54139 18.6347 5.51382 18.6366 5.48636C18.642 5.44288 18.6545 5.4005 18.6737 5.36084C18.6912 5.32361 18.7165 5.29027 18.748 5.26294V5.25792ZM19.2786 4.61528C19.2662 4.91589 18.7375 4.91652 18.7258 4.61528C18.6724 4.10004 18.5357 2.77397 18.5396 2.2901C18.5442 2.14074 18.6698 2.05225 18.8365 2.01836C18.944 1.99779 19.0546 1.99779 19.162 2.01836C19.332 2.05351 19.4648 2.14388 19.4648 2.29701V2.31207L19.2786 4.61528Z" fill="#010101"/>
</g>
<defs>
<clipPath id="clip0_372_6">
<rect width="8" height="7" fill="white" transform="translate(15)"/>
</clipPath>
</defs>
</svg>
