<svg width="21" height="20" viewBox="0 0 21 20" fill="none" xmlns="http://www.w3.org/2000/svg">
<path fill-rule="evenodd" clip-rule="evenodd" d="M10.9165 0C6.07484 0 2.1665 3.90833 2.1665 8.75C2.1665 12.6 4.67484 15.8667 8.17484 17.0333C8.6415 17.0917 8.75817 16.8583 8.75817 16.625V15.1083C6.30817 15.6333 5.78317 13.9417 5.78317 13.9417C5.37484 12.95 4.7915 12.6583 4.7915 12.6583C3.97484 12.1333 4.84984 12.1333 4.84984 12.1333C5.72484 12.1917 6.1915 13.0083 6.1915 13.0083C6.94984 14.35 8.23317 13.9417 8.75817 13.7083C8.8165 13.125 9.04984 12.775 9.3415 12.5417C7.4165 12.3083 5.37484 11.55 5.37484 8.225C5.37484 7.29167 5.72484 6.475 6.24984 5.89167C6.13317 5.65833 5.8415 4.78333 6.30817 3.55833C6.30817 3.55833 7.0665 3.325 8.69984 4.43333C9.39984 4.25833 10.1582 4.14167 10.9165 4.14167C11.6748 4.14167 12.4332 4.25833 13.1332 4.43333C14.8248 3.325 15.5248 3.55833 15.5248 3.55833C15.9915 4.78333 15.6998 5.65833 15.5832 5.89167C16.1665 6.475 16.4582 7.29167 16.4582 8.225C16.4582 11.6083 14.4165 12.3083 12.4915 12.5417C12.7832 12.8333 13.0748 13.3583 13.0748 14.175V16.5667C13.0748 16.8 13.2498 17.0917 13.6582 16.975C17.1582 15.8083 19.6082 12.5417 19.6082 8.69167C19.6665 3.90833 15.7582 0 10.9165 0Z" fill="currentColor"/>
</svg>
