<svg width="20" height="20" viewBox="0 0 20 20" fill="none" xmlns="http://www.w3.org/2000/svg">
<g clip-path="url(#clip0_208_1155)">
<path d="M20 9.99999L17.894 11.8027L19.0113 14.3402L16.3298 15.0469L16.2355 17.8183L13.5126 17.2958L12.225 19.7514L10 18.0952L7.77505 19.7514L6.48743 17.2958L3.76452 17.8183L3.67014 15.0469L0.988667 14.3402L2.106 11.8028L0 9.99999L2.106 8.19728L0.988667 5.65975L3.67019 4.95304L3.76452 2.18171L6.48743 2.70423L7.77505 0.248611L10 1.90475L12.2249 0.248611L13.5126 2.70423L16.2355 2.18171L16.3299 4.95304L19.0113 5.6598L17.894 8.19723L20 9.99999Z" fill="#F5C525"/>
<path d="M10.0002 16.6667C13.6821 16.6667 16.6668 13.6819 16.6668 9.99999C16.6668 6.3181 13.6821 3.33333 10.0002 3.33333C6.31826 3.33333 3.3335 6.3181 3.3335 9.99999C3.3335 13.6819 6.31826 16.6667 10.0002 16.6667Z" fill="#F8A805"/>
</g>
<defs>
<clipPath id="clip0_208_1155">
<rect width="20" height="20" fill="white"/>
</clipPath>
</defs>
</svg>
