<svg width="500" height="110" viewBox="0 0 500 110" fill="none" xmlns="http://www.w3.org/2000/svg">
<path d="M485.503 110C481.518 110 478.081 108.68 475.192 106.04C472.402 103.302 471.007 99.8312 471.007 95.6268C471.007 91.4224 472.402 88.0491 475.192 85.5069C478.081 82.8669 481.518 81.5469 485.503 81.5469C489.588 81.5469 493.026 82.8669 495.815 85.5069C498.605 88.0491 500 91.4224 500 95.6268C500 99.8312 498.605 103.302 495.815 106.04C493.026 108.68 489.588 110 485.503 110Z" fill="#FFF000"/>
<path d="M408.509 109.998C401.833 109.998 395.855 108.727 390.575 106.185C385.394 103.643 381.359 99.7808 378.47 94.5986C375.58 89.3186 374.136 82.6209 374.136 74.5054V29.9189H397.45V71.132C397.45 77.6831 398.844 82.5231 401.634 85.6519C404.524 88.683 408.559 90.1986 413.74 90.1986C417.326 90.1986 420.515 89.4653 423.304 87.9986C426.094 86.4342 428.286 84.0875 429.88 80.9586C431.474 77.732 432.271 73.7231 432.271 68.932V29.9189H455.585V108.825H433.467V87.1186L437.502 93.4252C434.812 98.9008 430.826 103.056 425.546 105.892C420.365 108.63 414.686 109.998 408.509 109.998Z" fill="currentColor"/>
<path d="M297.161 92.6928L297.759 64.8263L335.27 29.9198H363.068L327.051 65.8529L314.945 75.5329L297.161 92.6928ZM277.882 108.826V0H301.196V108.826H277.882ZM337.811 108.826L310.611 75.6796L325.257 57.933L366.057 108.826H337.811Z" fill="currentColor"/>
<path d="M218.71 109.999C210.141 109.999 202.519 108.239 195.844 104.719C189.268 101.199 184.037 96.4079 180.152 90.3457C176.366 84.1858 174.473 77.1947 174.473 69.3725C174.473 61.4526 176.366 54.4615 180.152 48.3993C184.037 42.2393 189.268 37.4483 195.844 34.0261C202.519 30.5061 210.141 28.7461 218.71 28.7461C227.178 28.7461 234.75 30.5061 241.426 34.0261C248.101 37.4483 253.332 42.1905 257.118 48.2526C260.904 54.3148 262.797 61.3548 262.797 69.3725C262.797 77.1947 260.904 84.1858 257.118 90.3457C253.332 96.4079 248.101 101.199 241.426 104.719C234.75 108.239 227.178 109.999 218.71 109.999ZM218.71 91.2257C222.595 91.2257 226.082 90.3457 229.171 88.5857C232.26 86.8257 234.701 84.3324 236.494 81.1058C238.287 77.7814 239.184 73.8703 239.184 69.3725C239.184 64.777 238.287 60.8659 236.494 57.6393C234.701 54.4126 232.26 51.9193 229.171 50.1593C226.082 48.3993 222.595 47.5193 218.71 47.5193C214.824 47.5193 211.337 48.3993 208.248 50.1593C205.16 51.9193 202.669 54.4126 200.776 57.6393C198.982 60.8659 198.086 64.777 198.086 69.3725C198.086 73.8703 198.982 77.7814 200.776 81.1058C202.669 84.3324 205.16 86.8257 208.248 88.5857C211.337 90.3457 214.824 91.2257 218.71 91.2257Z" fill="currentColor"/>
<path d="M126.571 109.999C117.404 109.999 109.334 108.239 102.36 104.719C95.4852 101.199 90.1549 96.4079 86.3689 90.3457C82.5828 84.1858 80.6898 77.1947 80.6898 69.3725C80.6898 61.4526 82.533 54.4615 86.2194 48.3993C90.0054 42.2393 95.1365 37.4483 101.613 34.0261C108.089 30.5061 115.412 28.7461 123.582 28.7461C131.453 28.7461 138.526 30.4083 144.803 33.7327C151.18 36.9594 156.211 41.6527 159.898 47.8126C163.584 53.8748 165.427 61.1592 165.427 69.6658C165.427 70.5458 165.377 71.5725 165.278 72.7458C165.178 73.8214 165.078 74.848 164.979 75.8258H99.6698V62.4792H152.724L143.757 66.4392C143.757 62.3326 142.91 58.7637 141.217 55.7326C139.523 52.7015 137.181 50.3548 134.192 48.6926C131.203 46.9326 127.716 46.0527 123.731 46.0527C119.746 46.0527 116.209 46.9326 113.12 48.6926C110.131 50.3548 107.79 52.7504 106.096 55.8793C104.402 58.9104 103.555 62.5281 103.555 66.7325V70.2525C103.555 74.5547 104.502 78.368 106.395 81.6924C108.388 84.9191 111.128 87.4124 114.615 89.1724C118.201 90.8346 122.386 91.6657 127.168 91.6657C131.453 91.6657 135.189 91.0302 138.377 89.7591C141.665 88.488 144.654 86.5813 147.344 84.0391L159.748 97.239C156.062 101.346 151.429 104.523 145.849 106.772C140.27 108.923 133.844 109.999 126.571 109.999Z" fill="currentColor"/>
<path d="M34.8215 109.999C27.9469 109.999 21.3213 109.217 14.9449 107.652C8.66802 105.99 3.6864 103.937 0 101.492L7.77133 85.0658C11.4577 87.3146 15.7917 89.1724 20.7734 90.6391C25.8546 92.0079 30.8362 92.6924 35.7182 92.6924C41.0984 92.6924 44.8844 92.0568 47.0763 90.7857C49.3679 89.5146 50.5136 87.7546 50.5136 85.5058C50.5136 83.648 49.6169 82.2791 47.8236 81.3991C46.1298 80.4213 43.8383 79.688 40.9489 79.1991C38.0596 78.7102 34.8713 78.2214 31.3842 77.7325C27.9967 77.2436 24.5594 76.608 21.0723 75.8258C17.5851 74.9458 14.3969 73.6747 11.5075 72.0125C8.6182 70.3503 6.27684 68.1014 4.48346 65.2659C2.78971 62.4303 1.94283 58.7637 1.94283 54.2659C1.94283 49.2793 3.3875 44.8793 6.27684 41.066C9.26582 37.2527 13.55 34.2705 19.1294 32.1194C24.7088 29.8705 31.3842 28.7461 39.1555 28.7461C44.6353 28.7461 50.2147 29.3328 55.8938 30.5061C61.5728 31.6794 66.3054 33.3905 70.0914 35.6394L62.3201 51.9193C58.4344 49.6704 54.4989 48.1549 50.5136 47.3726C46.628 46.4926 42.8419 46.0527 39.1555 46.0527C33.9747 46.0527 30.1886 46.7371 27.7974 48.106C25.4063 49.4749 24.2107 51.2348 24.2107 53.3859C24.2107 55.3415 25.0576 56.8081 26.7513 57.7859C28.5447 58.7637 30.8861 59.5459 33.7754 60.1326C36.6647 60.7192 39.8032 61.257 43.1907 61.7459C46.6778 62.137 50.1649 62.7726 53.6521 63.6525C57.1392 64.5325 60.2776 65.8036 63.0673 67.4659C65.9567 69.0303 68.298 71.2303 70.0914 74.0658C71.8848 76.8036 72.7815 80.4213 72.7815 84.9191C72.7815 89.808 71.287 94.159 68.298 97.9723C65.3091 101.688 60.975 104.621 55.296 106.772C49.7166 108.923 42.8918 109.999 34.8215 109.999Z" fill="currentColor"/>
</svg>
