<svg width="600" height="600" viewBox="0 0 600 600" fill="none" xmlns="http://www.w3.org/2000/svg">
<rect width="600" height="600" fill="#16B9B6"/>
<path d="M514.311 351C510.684 351 507.556 349.776 504.927 347.328C502.388 344.789 501.119 341.571 501.119 337.672C501.119 333.773 502.388 330.646 504.927 328.288C507.556 325.84 510.684 324.616 514.311 324.616C518.028 324.616 521.156 325.84 523.695 328.288C526.233 330.646 527.503 333.773 527.503 337.672C527.503 341.571 526.233 344.789 523.695 347.328C521.156 349.776 518.028 351 514.311 351Z" fill="#FFF000"/>
<path d="M444.245 350.999C438.17 350.999 432.73 349.82 427.925 347.463C423.21 345.105 419.538 341.524 416.909 336.719C414.28 331.823 412.965 325.612 412.965 318.087V276.743H434.181V314.959C434.181 321.034 435.45 325.522 437.989 328.423C440.618 331.234 444.29 332.639 449.005 332.639C452.269 332.639 455.17 331.959 457.709 330.599C460.247 329.148 462.242 326.972 463.693 324.071C465.144 321.079 465.869 317.362 465.869 312.919V276.743H487.085V349.911H466.957V329.783L470.629 335.631C468.181 340.708 464.554 344.561 459.749 347.191C455.034 349.729 449.866 350.999 444.245 350.999Z" fill="white"/>
<path d="M342.917 334.952L343.461 309.112L377.597 276.744H402.893L370.117 310.064L359.101 319.04L342.917 334.952ZM325.373 349.911V249H346.589V349.911H325.373ZM379.909 349.911L355.157 319.176L368.485 302.72L405.613 349.911H379.909Z" fill="white"/>
<path d="M271.525 350.999C263.728 350.999 256.792 349.367 250.717 346.103C244.733 342.839 239.973 338.396 236.437 332.775C232.992 327.063 231.269 320.58 231.269 313.327C231.269 305.983 232.992 299.5 236.437 293.879C239.973 288.167 244.733 283.725 250.717 280.551C256.792 277.287 263.728 275.655 271.525 275.655C279.232 275.655 286.123 277.287 292.197 280.551C298.272 283.725 303.032 288.122 306.477 293.743C309.923 299.364 311.645 305.892 311.645 313.327C311.645 320.58 309.923 327.063 306.477 332.775C303.032 338.396 298.272 342.839 292.197 346.103C286.123 349.367 279.232 350.999 271.525 350.999ZM271.525 333.591C275.061 333.591 278.235 332.775 281.045 331.143C283.856 329.511 286.077 327.199 287.709 324.207C289.341 321.124 290.157 317.498 290.157 313.327C290.157 309.066 289.341 305.439 287.709 302.447C286.077 299.455 283.856 297.143 281.045 295.511C278.235 293.879 275.061 293.063 271.525 293.063C267.989 293.063 264.816 293.879 262.005 295.511C259.195 297.143 256.928 299.455 255.205 302.447C253.573 305.439 252.757 309.066 252.757 313.327C252.757 317.498 253.573 321.124 255.205 324.207C256.928 327.199 259.195 329.511 262.005 331.143C264.816 332.775 267.989 333.591 271.525 333.591Z" fill="white"/>
<path d="M187.678 350.999C179.336 350.999 171.992 349.367 165.646 346.103C159.39 342.839 154.539 338.396 151.094 332.775C147.649 327.063 145.926 320.58 145.926 313.327C145.926 305.983 147.603 299.5 150.958 293.879C154.403 288.167 159.073 283.725 164.966 280.551C170.859 277.287 177.523 275.655 184.958 275.655C192.12 275.655 198.558 277.197 204.27 280.279C210.072 283.271 214.651 287.623 218.006 293.335C221.36 298.956 223.038 305.711 223.038 313.599C223.038 314.415 222.992 315.367 222.902 316.455C222.811 317.452 222.72 318.404 222.63 319.311H163.198V306.935H211.478L203.318 310.607C203.318 306.799 202.547 303.49 201.006 300.679C199.464 297.868 197.334 295.692 194.614 294.151C191.894 292.519 188.72 291.703 185.094 291.703C181.467 291.703 178.248 292.519 175.438 294.151C172.718 295.692 170.587 297.914 169.046 300.815C167.504 303.626 166.734 306.98 166.734 310.879V314.143C166.734 318.132 167.595 321.668 169.318 324.751C171.131 327.743 173.624 330.055 176.798 331.687C180.062 333.228 183.87 333.999 188.222 333.999C192.12 333.999 195.52 333.41 198.422 332.231C201.414 331.052 204.134 329.284 206.582 326.927L217.87 339.167C214.515 342.975 210.299 345.922 205.222 348.007C200.144 350.002 194.296 350.999 187.678 350.999Z" fill="white"/>
<path d="M104.185 350.999C97.9292 350.999 91.8999 350.274 86.0972 348.823C80.3852 347.282 75.8519 345.378 72.4972 343.111L79.5692 327.879C82.9239 329.964 86.8679 331.687 91.4012 333.047C96.0252 334.316 100.559 334.951 105.001 334.951C109.897 334.951 113.343 334.362 115.337 333.183C117.423 332.004 118.465 330.372 118.465 328.287C118.465 326.564 117.649 325.295 116.017 324.479C114.476 323.572 112.391 322.892 109.761 322.439C107.132 321.986 104.231 321.532 101.057 321.079C97.9745 320.626 94.8465 320.036 91.6732 319.311C88.4999 318.495 85.5985 317.316 82.9692 315.775C80.3399 314.234 78.2092 312.148 76.5772 309.519C75.0359 306.89 74.2652 303.49 74.2652 299.319C74.2652 294.695 75.5799 290.615 78.2092 287.079C80.9292 283.543 84.8279 280.778 89.9052 278.783C94.9825 276.698 101.057 275.655 108.129 275.655C113.116 275.655 118.193 276.199 123.361 277.287C128.529 278.375 132.836 279.962 136.281 282.047L129.209 297.143C125.673 295.058 122.092 293.653 118.465 292.927C114.929 292.111 111.484 291.703 108.129 291.703C103.415 291.703 99.9692 292.338 97.7932 293.607C95.6172 294.876 94.5292 296.508 94.5292 298.503C94.5292 300.316 95.2999 301.676 96.8412 302.583C98.4732 303.49 100.604 304.215 103.233 304.759C105.863 305.303 108.719 305.802 111.801 306.255C114.975 306.618 118.148 307.207 121.321 308.023C124.495 308.839 127.351 310.018 129.889 311.559C132.519 313.01 134.649 315.05 136.281 317.679C137.913 320.218 138.729 323.572 138.729 327.743C138.729 332.276 137.369 336.311 134.649 339.847C131.929 343.292 127.985 346.012 122.817 348.007C117.74 350.002 111.529 350.999 104.185 350.999Z" fill="white"/>
</svg>
