<svg width="127" height="29" viewBox="0 0 127 29" fill="none" xmlns="http://www.w3.org/2000/svg">
<path d="M22.9632 13.02C21.7265 12.2733 20.4082 11.725 19.0082 11.375C17.6082 11.0017 15.9282 10.745 13.9682 10.605C13.8048 10.5817 13.6415 10.57 13.4782 10.57C13.3382 10.5467 13.1982 10.535 13.0582 10.535C12.5682 10.535 12.3232 10.7333 12.3232 11.13C12.3232 11.3633 12.4515 11.5267 12.7082 11.62C12.9882 11.69 13.3615 11.7483 13.8282 11.795C14.7382 11.9117 15.6948 12.0517 16.6982 12.215C17.7015 12.355 18.6815 12.5767 19.6382 12.88C20.5948 13.1833 21.4582 13.6267 22.2282 14.21C23.0215 14.7933 23.6398 15.5633 24.0832 16.52C24.5498 17.4767 24.7832 18.6783 24.7832 20.125C24.7832 21.735 24.4098 23.0883 23.6632 24.185C22.9165 25.2583 21.9015 26.1217 20.6182 26.775C19.3582 27.405 17.9115 27.86 16.2782 28.14C14.6682 28.42 12.9998 28.56 11.2732 28.56C9.2665 28.5833 7.2715 28.4667 5.28816 28.21C3.32816 27.9767 1.58983 27.6733 0.0731641 27.3L1.05316 14.98C1.58983 15.3767 2.2315 15.8083 2.97816 16.275C3.72483 16.7183 4.73983 17.1267 6.02316 17.5C7.3065 17.8733 8.99816 18.165 11.0982 18.375C11.2148 18.3983 11.3198 18.41 11.4132 18.41C11.5298 18.41 11.6348 18.41 11.7282 18.41C11.9848 18.41 12.1715 18.375 12.2882 18.305C12.4282 18.235 12.4982 18.0833 12.4982 17.85C12.4982 17.5933 12.3815 17.43 12.1482 17.36C11.9382 17.29 11.5998 17.22 11.1332 17.15C9.87316 17.01 8.61316 16.8117 7.35316 16.555C6.1165 16.2983 4.98483 15.9017 3.95816 15.365C2.9315 14.8283 2.10316 14.0817 1.47316 13.125C0.866497 12.1683 0.563164 10.92 0.563164 9.38C0.563164 7.18667 1.0765 5.44833 2.10316 4.165C3.15316 2.85833 4.56483 1.925 6.33816 1.365C8.1115 0.781666 10.0948 0.49 12.2882 0.49C14.1315 0.49 16.0565 0.664999 18.0632 1.015C20.0698 1.34167 22.0532 1.79667 24.0132 2.38L22.9632 13.02ZM36.9812 17.43V18.865H47.6912V28H25.9562V1.05H47.0612V8.925H36.9812V10.36H46.1162V17.43H36.9812ZM74.3325 20.72C73.9592 23.17 72.6642 25.095 70.4475 26.495C68.2308 27.8717 65.3258 28.56 61.7325 28.56C58.1392 28.56 55.2342 27.8717 53.0175 26.495C50.8242 25.1183 49.5292 23.2167 49.1325 20.79C49.0392 20.1367 48.9575 19.2617 48.8875 18.165C48.8408 17.045 48.8175 15.8433 48.8175 14.56C48.8175 13.3233 48.8408 12.18 48.8875 11.13C48.9575 10.0567 49.0392 9.21667 49.1325 8.61C49.5292 6.04333 50.8358 4.04833 53.0525 2.625C55.2692 1.20167 58.1625 0.49 61.7325 0.49C65.3258 0.49 68.2308 1.20167 70.4475 2.625C72.6642 4.025 73.9592 5.97333 74.3325 8.47C74.4258 9.07667 74.4958 9.91667 74.5425 10.99C74.6125 12.04 74.6475 13.195 74.6475 14.455C74.6475 15.785 74.6125 16.9983 74.5425 18.095C74.4958 19.1917 74.4258 20.0667 74.3325 20.72ZM62.6775 19.11V9.94C62.6775 9.31 62.3625 8.995 61.7325 8.995C61.1025 8.995 60.7875 9.31 60.7875 9.94V19.11C60.7875 19.74 61.1025 20.055 61.7325 20.055C62.3625 20.055 62.6775 19.74 62.6775 19.11ZM86.842 28L76.132 27.965V1.05H87.157L87.017 7.105L86.702 10.99H87.017L89.992 1.05H101.332L95.557 13.37L101.962 28H89.677L87.017 18.06H86.702L86.842 28ZM102.105 1.05H113.445V18.62C113.445 18.69 113.48 18.865 113.55 19.145C113.644 19.425 113.924 19.565 114.39 19.565C114.857 19.565 115.125 19.425 115.195 19.145C115.289 18.865 115.335 18.69 115.335 18.62V1.05H126.675V19.11C126.675 20.3933 126.465 21.6067 126.045 22.75C125.625 23.87 124.937 24.8733 123.98 25.76C123.024 26.6233 121.729 27.3117 120.095 27.825C118.485 28.315 116.479 28.56 114.075 28.56C111.952 28.56 110.132 28.3033 108.615 27.79C107.099 27.2767 105.862 26.5767 104.905 25.69C103.949 24.8033 103.237 23.8 102.77 22.68C102.327 21.56 102.105 20.3933 102.105 19.18V1.05Z" fill="currentColor"/>
</svg>
